# xmcd
#
# Track frame offsets:
#	150
#	17263
#	35359
#	51572
#	65241
#	81946
#	98221
#	112526
#	128102
#	144098
#	159963
#	175516
#	191441
#
# Disc length: 2753 seconds
#
# Revision: 1
# Processed by: cddbd v1.5.2PL0 Copyright (c) Steve Scherf et al.
# Submitted via: audiograbber 1.83.01
#
DISCID=9a0abf0d
DTITLE=Buddy Jewell - Country Enough
DYEAR=2008
DGENRE=Country
TTITLE0=Country Enough 
TTITLE1=Southern Side of Heaven
TTITLE2=The Wheels Turn Slow
TTITLE3=Need a Little Country
TTITLE4=This Ain't Mexico
TTITLE5=What This Countrys Comming To
TTITLE6=Second Chance of a Lifetime
TTITLE7=The Ones I Love The Most
TTITLE8=Summer Girl
TTITLE9=She Loves This Town
TTITLE10=No Grease, No Gravy
TTITLE11=Hillbilly Water
TTITLE12=Leavin' Louisiana
EXTD=This Buddy's third release after winning Nashville Star.\nIncludes the Sma
EXTD=sh hit " This Ain't Mexico!"\n
EXTT0=
EXTT1=
EXTT2=
EXTT3=
EXTT4=
EXTT5=
EXTT6=
EXTT7=
EXTT8=
EXTT9=
EXTT10=
EXTT11=
EXTT12=
PLAYORDER=
